<svg width="200px" height="200.00px" viewBox="0 0 1024 1024" version="1.1"
    xmlns="http://www.w3.org/2000/svg">
    <path
        d="M935.294304 564.911393c-5.415046 0-10.830543-2.066767-14.96498-6.199848L512 150.380865l-408.330228 408.330228c-8.267518 8.267518-21.660635 8.267518-29.928153 0-8.267518-8.26797-8.267518-21.661087 0-29.928605l423.294756-423.294304c8.267066-8.267518 21.660184-8.267518 29.927702 0l423.293853 423.294304c8.26797 8.26797 8.26797 21.661087 0 29.928605C946.124848 562.844626 940.70935 564.911393 935.294304 564.911393z" />
    <path
        d="M765.976583 924.712116l-148.152894 0c-11.69798 0-21.164828-9.466396-21.164828-21.16528 0-11.697529 9.466848-21.164828 21.164828-21.164828l148.152894 0c23.335001 0 42.329205-18.993752 42.329205-42.328753l0-232.812206c0-11.69798 9.466848-21.164377 21.164828-21.164377 11.698883 0 21.164828 9.466396 21.164828 21.164377l0 232.812206C850.635444 886.743577 812.666904 924.712116 765.976583 924.712116zM406.176763 924.712116 258.023417 924.712116c-46.690322 0-84.658409-37.968539-84.658409-84.658861L173.365008 437.923327c0-11.698432 9.465945-21.164828 21.164377-21.164828 11.698432 0 21.164828 9.466396 21.164828 21.164828l0 402.129476c0 23.335001 18.994655 42.328753 42.329656 42.328753l126.988066 0 0-190.482098c0-11.69798 9.466396-21.164828 21.16528-21.164828l211.646926 0c11.698432 0 21.164828 9.466848 21.164828 21.164828 0 11.698432-9.466396 21.164828-21.164828 21.164828L427.341139 713.064287l0 190.482098C427.341139 915.24572 417.875194 924.712116 406.176763 924.712116z" />
</svg>