<svg version="1.1" id="图层_1" xmlns="http://www.w3.org/2000/svg" xmlns:xlink="http://www.w3.org/1999/xlink" x="0px" y="0px"
	 viewBox="0 0 200 200" style="enable-background:new 0 0 200 200;" xml:space="preserve">
<path d="M97.1,119.1c0,2.7,2.3,4.7,4.9,4.7c2.8,0,4.9-2.2,4.9-4.7V47.7c0-2.7-2.3-4.7-4.9-4.7c-2.8,0-4.9,2.2-4.9,4.7V119.1z"/>
<path d="M95.8,92c-1.8-2-4.9-2.2-7-0.5c-2.1,1.7-2.3,4.7-0.5,6.7l34.6,38.1c1.8,2,4.9,2.2,7,0.5c2.1-1.7,2.3-4.7,0.5-6.7L95.8,92z"
	/>
<path d="M100,193.4c-53.6,0-97.2-42-97.2-93.4S46.4,6.7,100,6.7c53.5,0,97.2,41.9,97.2,93.4C197,151.4,153.5,193.4,100,193.4z
	 M100,15.9c-48.3,0-87.6,37.7-87.6,84.1s39.3,84.1,87.4,84.1s87.4-37.8,87.4-84.1S148.1,15.9,100,15.9z"/>
</svg>
