<svg version="1.1" id="图层_1" xmlns="http://www.w3.org/2000/svg" xmlns:xlink="http://www.w3.org/1999/xlink" x="0px" y="0px"
	 viewBox="0 0 200 200" style="enable-background:new 0 0 200 200;" xml:space="preserve">
<path d="M164.4,55.1l10.9-10.9c2.2-2.2,2.2-5.8,0-8.1c-2.2-2.2-5.8-2.2-8.1,0L156.3,47c-5.3-4.7-11.3-8.8-17.6-12
	c-2.8-1.4-6.3-0.3-7.7,2.5c-1.4,2.8-0.3,6.3,2.5,7.7c25,12.6,40.8,38.2,40.7,66.2c0,40.9-33.3,74.2-74.2,74.2s-74.2-33.3-74.2-74.2
	S59.1,37.2,100,37.2c3.2,0,5.7-2.6,5.7-5.7c0,0,0,0,0,0V14.4h17.1c3.2,0,5.7-2.6,5.7-5.7c0-3.2-2.6-5.7-5.7-5.7H77.2
	c-3.2,0-5.7,2.6-5.7,5.7c0,3.2,2.6,5.7,5.7,5.7h17.1v11.7c-44.6,3-79.9,40.1-79.9,85.4c0,47.2,38.4,85.6,85.6,85.6
	s85.6-38.4,85.6-85.6C185.7,90.7,178.1,70.7,164.4,55.1z"/>
<path d="M100,71.5c-3.2,0-5.7,2.6-5.7,5.7c0,0,0,0,0,0v34.3c0,3.2,2.6,5.7,5.7,5.7c3.2,0,5.7-2.6,5.7-5.7V77.2
	C105.7,74,103.2,71.5,100,71.5C100,71.5,100,71.5,100,71.5z"/>
</svg>
