<svg version="1.1" id="图层_1" xmlns="http://www.w3.org/2000/svg" xmlns:xlink="http://www.w3.org/1999/xlink" x="0px" y="0px"
	 viewBox="0 0 200 200" style="enable-background:new 0 0 200 200;" xml:space="preserve">
<path d="M100,25.8c-47.6,0-86.3,38.7-86.3,86.3s38.7,86.3,86.3,86.3s86.3-38.7,86.3-86.3S147.6,25.8,100,25.8z M100,183.7
	c-39.4,0-71.5-32.1-71.5-71.5S60.6,40.6,100,40.6s71.5,32.1,71.5,71.5S139.4,183.7,100,183.7z M196.3,46.7
	c-10.3-18.3-25.8-33-44.7-42.2c-3.7-1.8-8.1-0.3-9.9,3.4c-1.8,3.7-0.3,8.1,3.4,9.9l0,0c16.1,7.9,29.5,20.5,38.3,36.2
	c2,3.6,6.5,4.9,10,2.9c3.6-2,4.9-6.5,2.9-10C196.3,46.8,196.3,46.8,196.3,46.7z M16.6,54c8.8-15.7,22.2-28.3,38.3-36.2
	c3.6-1.9,5-6.4,3.1-10c-1.8-3.5-6.1-4.9-9.6-3.3C29.6,13.7,14,28.4,3.7,46.7c-2.1,3.5-0.9,8.1,2.7,10.1c3.5,2.1,8.1,0.9,10.1-2.7
	C16.6,54.1,16.6,54,16.6,54z"/>
<path d="M119.9,88.5l-25.2,28.8l-15.8-12.6c-3.3-2.4-7.9-1.7-10.4,1.6c-2.3,3.1-1.8,7.4,1.1,10l21.3,17c3.1,2.5,7.6,2.1,10.2-0.9
	L131,98.2c2.7-3.1,2.4-7.8-0.7-10.4C127.2,85.1,122.6,85.4,119.9,88.5C119.9,88.5,119.9,88.5,119.9,88.5z"/>
</svg>
